# xmcd
#
# Track frame offsets: 
#        183
#        20188
#        39310
#
# Disc length: 762 seconds
#
# Revision: 0
# Processed by: cddbd v1.5.2PL0 Copyright (c) Steve Scherf et al.
# Submitted via: ExactAudioCopyFreeDBPlugin 1.0
#
DISCID=1e02f803
DTITLE=Robert Cray - Just A Loser
DYEAR=1992
DGENRE=Blues
TTITLE0=Just A Loser
TTITLE1=I'm A Good Man
TTITLE2=Don't You Even Care?
EXTD=
EXTT0=
EXTT1=
EXTT2=
PLAYORDER=
